<?xml version="1.0" encoding="utf-8"?>
<svg viewBox="0 0 396.9 283.5" style="enable-background:new 0 0 396.9 283.5;" xmlns="http://www.w3.org/2000/svg">
  <g>
    <g>
      <path d="M18.2,212.8c-0.5,11.4,0.9,22.8,4.4,33.6c2.8,8.5,6.7,19.8,14.1,25.4c6.1,4.6,13.5,2.8,17.8-3.2 c5.7-8.1,6.8-20.1,7.4-29.8c1.7-25.1-0.5-50.7-2.8-75.6c-2.3-25.2-4.9-50.4-8.2-75.5c-1.9-14.1-4.2-28.1-7.4-41.9 c-2.1-9.1-4.4-18.5-13.9-22.5c-0.6-0.3-1.5,0-1.9,0.5c-8.9,9.5-8.7,24.4-8.6,36.7c0.1,15.1,1.9,30.3,4.3,45.2 c4.8,29.3,13.7,58.3,29,83.9c6.2,10.4,14.7,22.8,26.6,27.2c10.7,4,19-3.9,23.1-13.2c6-13.9,7.3-29.3,7.7-44.3 c0.4-16.5-0.4-33.1-1.7-49.6c-1.5-18.1-3.5-36.3-5.8-54.3C100,38.2,96.8,21.2,90.6,4.9C90,3.3,88,3,87,4.4 c-5.5,7.6-6.3,17.1-7.2,26.2c-1.1,11-1.4,22.2-1.1,33.3c0.5,21.9,3.2,43.7,7,65.3c3.8,21.4,8.7,42.6,15.2,63.4 c2.9,9.4,6.3,18.6,10.7,27.4c3.6,7.1,8,16.5,14.9,21.1c7.4,4.9,14.8,0.7,19.9-5.2c7.3-8.5,13.3-18.1,17.9-28.3 c1-2.3-2.4-4.3-3.4-2c-3.6,7.9-7.9,15.4-13.1,22.4c-2.5,3.3-5.3,7.4-8.9,9.7c-5.8,3.7-10.9,0.4-14.5-4.4 c-10.7-14.2-16.6-31.5-21.5-48.4c-10.7-37-18.1-75.5-19.8-114c-0.5-11.1-0.4-22.2,0.3-33.3c0.7-10.4,0.9-22.3,7.2-31 C89.2,6.3,88,6.1,86.8,6c10.1,26.5,12.4,55.4,15.3,83.4c3,28.4,5.7,57.6,2.7,86.1c-0.7,6.9-2,13.8-4.1,20.4 c-1.8,5.5-4,11.6-8.6,15.4c-12.6,10.3-27.7-10.2-33.7-19.4c-14.3-22.2-23.3-47.6-28.7-73.3c-3.1-15-5.2-30.3-6.2-45.6 c-0.6-8.2-0.7-16.5-0.1-24.8c0.5-7.7,1.5-15.6,7-21.5c-0.6,0.2-1.3,0.3-1.9,0.5c8.9,3.7,10.2,15.3,12,23.5 C42.7,61,44.5,71.5,46.1,82c3.1,21.4,5.3,42.9,7.4,64.4c2.2,21.3,4,42.7,4.6,64.2c0.3,10.3,0.5,20.7-0.4,30.9 c-0.5,5.3-1.3,10.5-2.7,15.6c-1.2,4.3-2.7,9.7-6.8,12.2C37.2,276.2,29.4,254,27,247c-3.8-11-5.4-22.6-4.9-34.2 C22.3,210.2,18.3,210.2,18.2,212.8L18.2,212.8z"/>
    </g>
  </g>
  <g>
    <g>
      <path d="M138.3,64c-5.2,5.8-9.5,12.4-12.6,19.6c-2.8,6.6-5.9,14.7-5.5,22c0.3,5.9,4.5,10.7,10.5,11.2c7.1,0.5,14.1-4.5,19.2-8.8 c12.7-10.7,22.6-25.6,30-40.3c3.6-7.2,7.9-15.5,9.3-23.5c0.8-4.5-0.7-11.3-6.6-10.7c-6.7,0.7-13.7,7.7-17.9,12.4 c-5.4,5.9-9.8,12.7-13.4,19.9c-6.9,14.1-12,31.6-9.4,47.5c2.4,14.3,13,24.4,26.3,29.3c8.7,3.2,18,4.2,26.9,6.9 c2.4,0.7,5.8,1.6,7.2,3.9c1.4,2.5,0.4,6-0.5,8.5c-1.5,4.6-3.9,9.1-6.3,13.3c-10.1,17.9-24.2,33.6-36.5,50.1 c-13.5,18.1-26.4,36.5-38.8,55.3c-1.4,2.1,2,4.1,3.4,2c18.6-28,38.4-55,58.9-81.6c8.6-11.2,16.9-22.7,22.3-35.9 c1.9-4.7,3.7-11.1-0.3-15.4c-4.1-4.5-12.4-5.3-17.9-6.5c-13.9-3.1-28.9-6.5-36.8-19.6c-8.3-13.7-4.2-32.2,0.9-46.4 c5-13.8,13.4-28.2,25.8-36.5c1.3-0.9,2.9-2,4.4-2.5c5.2-1.7,4.6,4.5,3.8,7.5c-1,3.7-2.6,7.4-4.2,11c-3,7.2-6.6,14.1-10.7,20.8 c-4.4,7.1-9.3,13.8-14.9,20c-5.5,6.1-12.7,13.4-21.1,15.2c-14.6,3.1-8.7-16.7-6.2-23.7c3-8.1,7.4-15.6,13.2-22.1 C142.8,64.9,140,62.1,138.3,64L138.3,64z"/>
    </g>
  </g>
  <g>
    <g>
      <path d="M188.2,55c21.5,55.1,31,113.7,40.1,171.8c0.4,2.5,4.2,1.4,3.8-1.1C223,167.6,213.6,109,192.1,54 C191.1,51.6,187.3,52.6,188.2,55L188.2,55z"/>
    </g>
  </g>
  <g>
    <g>
      <path d="M178.9,91.6c10-12.6,21.8-23.8,35.1-33c6.8-4.7,14-9,21.5-12.4c5.6-2.6,26.9-11.1,22,3.4c-2.6,7.7-7.8,14.8-12.7,21.2 c-5.6,7.3-11.5,14.4-17.4,21.4c-11.9,13.9-24.1,27.4-36.3,41c-13.8,15.3-27.8,30.4-41.9,45.4c-1.7,1.9,1.1,4.7,2.8,2.8 c29-30.8,58-61.8,84.9-94.4c6-7.3,12.1-14.6,17.3-22.5c3.6-5.5,9.7-14.2,7.7-21.2c-4.5-15.5-32.7,1.4-40,5.7 c-17.6,10.3-33.1,24-45.8,39.9C174.5,90.8,177.3,93.6,178.9,91.6L178.9,91.6z"/>
    </g>
  </g>
  <g>
    <g>
      <path d="M246.3,169.5c-5.8,9.4-8.5,20.6-7.3,31.6c0.7,6.9,3.2,20,13.2,15.5c4.6-2.1,6.9-7.7,8.9-11.9c2.6-5.4,4.7-11,6.3-16.8 c1.6-5.8,2.7-11.7,3.3-17.6c0.3-2.9,0.5-5.8,0.5-8.7c0-2.3,0.5-5.5-0.5-7.7c-1.2-2.7-4.1-2.9-6.3-1.3c-3.8,2.8-4.7,8.5-5.3,12.8 c-1.8,12.6-1.3,26.2,2.5,38.4c2.8,9.2,11.5,8.7,16.3,1.1c6.8-10.6,8.7-24.1,10.6-36.3c2.5-15.3,4.2-30.7,5.3-46.2 c1-15.1,2.1-30.6-1.7-45.4c-0.4-1.5-2.3-1.9-3.3-0.9c-5.5,5.6-6.5,14.9-7.6,22.3c-1.3,8.8-1.7,17.7-1.5,26.6 c0.4,17.6,1.3,36.7,7,53.5c1.7,4.9,4.2,13.2,10.6,13.6c5.9,0.4,9.5-7,11.4-11.4c3.6-8.4,5.6-17.8,7.1-26.8 c1.4-8.1,2.7-16.4-0.7-24.2c-0.3-0.8-1.5-1.1-2.2-0.9c-5.5,1.4-8.1,7-10.1,11.8c-2.8,6.7-4.4,14.1-4.4,21.4 c0,9.5,5,22.3,16.9,19.3c13.6-3.5,16.9-23.3,19.5-34.7c3.7-16.6,6.3-33.6,8.3-50.5c1.1-9.6,1.9-19.3,2.2-29 c0.2-5.2,0.2-10.3,0.1-15.5c-0.1-3.3-0.2-6-2.4-8.6c-0.8-1-2.6-0.7-3.1,0.4c-6.2,11.9-7.8,25.2-8.6,38.4 c-1,15.2-0.6,30.5,1.1,45.7c0.7,6.6,1.7,13.1,3.2,19.5c1.2,4.9,2.5,11.6,6.7,14.9c8.9,7,18.8-2.2,24.2-8.9c1.6-2-1.2-4.8-2.8-2.8 c-3.1,3.8-6.5,8.3-11.5,9.7c-8,2.1-10.4-5.2-12.1-11.3c-3.1-11.2-4.2-23.1-4.9-34.7c-0.7-11.3-0.6-22.7,0.2-34 c0.8-11.9,2.4-23.8,8-34.5c-1,0.1-2.1,0.3-3.1,0.4c2.4,2.8,1.3,10.1,1.3,13.6c0,3.9-0.1,7.8-0.3,11.6c-0.4,8.1-1.1,16.1-2,24.2 c-1.9,16.6-4.5,33.2-8,49.6c-1.6,7.5-3.5,15.2-6.6,22.2c-3.1,7-12.6,16.5-19.2,7.1c-4-5.7-3.3-14.4-2.1-20.8 c1.1-6.1,3.9-18.7,10.8-20.5c-0.7-0.3-1.5-0.6-2.2-0.9c3.1,7.2,1.3,15.6,0,23c-1.2,6.8-2.8,13.6-5,20.1c-1.2,3.6-2.7,8.4-5.6,11.1 c-4,3.7-6.8,0.3-8.5-3.1c-3.1-6.5-4.7-13.8-5.8-20.9c-2.3-13.6-3.2-27.8-3.1-41.6c0-7.3,0.4-14.6,1.5-21.8 c1-6.3,1.8-14.9,6.5-19.6c-1.1-0.3-2.2-0.6-3.3-0.9c4.6,18.2,2.3,38.3,0.6,56.8c-1.7,18.5-3.4,38.1-9,55.9 c-1.4,4.5-3.1,9.3-6,13.1c-0.5,0.6-1.4,2.1-2.2,2.3c-1-0.3-1.9-0.7-2.9-1c-2.1,0.1-3.2-0.7-3.3-2.4c-1.1-2-1.3-5.1-1.7-7.3 c-1.9-10.1-2.2-20.7-0.5-30.8c0.3-1.8,0.6-3.6,1.3-5.3c0.2-0.5,0.6-1.9,1.1-2.3c2.4-1.8,1.3,0,1.6,1.2c1,3.7-0.2,9.3-0.6,13.1 c-1.1,9.3-3.4,18.4-7,27c-1.8,4.2-3.7,9.4-6.8,12.8c-2.3,2.6-3,2.8-5.8,0.7c-2.5-1.8-2.5-2.1-3.2-4.8c-0.6-2.4-1-4.9-1.2-7.4 c-0.8-9.9,1.8-19.6,6.9-28C251.1,169.3,247.7,167.3,246.3,169.5L246.3,169.5z"/>
    </g>
  </g>
  <g>
    <g>
      <path d="M270.4,102.1c-1.2,2.9-7.1,18.6,0.1,18.6c3,0,6.6-3.5,8.6-5.4c3.7-3.5,6.8-7.6,10-11.6c14-17.4,27.3-35.4,39.8-53.9 c1.1-1.6-1.5-3.1-2.6-1.5c-9.9,14.6-20.2,28.9-31.1,42.8c-4.9,6.3-9.7,12.6-14.9,18.6c-1.4,1.6-7.5,8.9-10.1,7.3 c-0.7-0.4,0.7-6.2,0.8-7c0.5-2.4,1.3-4.8,2.2-7.1C274,101.1,271.1,100.3,270.4,102.1L270.4,102.1z"/>
    </g>
  </g>
</svg>